<svg width="1440" height="217" viewBox="0 0 1440 217" fill="none" xmlns="http://www.w3.org/2000/svg">
      <g clip-path="url(#clip0_1404_1639)">
        <path fill="#B80C0A" d="M822.825 1376.35C442.978 1373.87 825.114 1492.32 379.521 1591.44C257.442 1618.6 67.8495 1629.33 87.5303 1399.8C97.2692 1286.23 -233.355 1389.35 -308.092 1248.67C-382.829 1107.99 -231 974.253 -262.352 798.321C-287.604 656.625 -410.715 561.473 -468.96 387.648C-543.538 165.083 -324.721 99.2618 -255.365 88.2082C-98.1695 63.1553 -11.2134 96.1639 162.68 151.829C336.574 207.495 482.234 96.5411 591.81 52.9193C701.386 9.29732 869.91 -43.7192 1022.21 81.3295C1174.5 206.378 1232.24 100.717 1362.65 139.879C1493.07 179.04 1418.86 328.199 1492.5 434.72C1566.14 541.241 1725.53 584.504 1783.59 654.817C1841.64 725.129 1853.08 821.033 1782.96 879.442C1734.41 919.877 1624.09 950.96 1532.82 915.517C1261.44 810.137 1202.67 1378.84 822.825 1376.35Z"/>
    </g>
</svg>
